<?xml version="1.0" standalone="no"?>
<!DOCTYPE svg PUBLIC "-//W3C//DTD SVG 20010904//EN"
 "http://www.w3.org/TR/2001/REC-SVG-20010904/DTD/svg10.dtd">
<svg version="1.0" xmlns="http://www.w3.org/2000/svg"
 width="1582.000000pt" height="1001.000000pt" viewBox="0 0 1582.000000 1001.000000"
 preserveAspectRatio="xMidYMid meet">

<g transform="translate(0.000000,1001.000000) scale(0.100000,-0.100000)"
fill="#000000" stroke="none">
<path d="M5910 9617 c-88 -27 -88 -27 -470 -237 -162 -89 -319 -180 -349 -203
-152 -117 -251 -328 -251 -536 0 -68 -1 -70 -28 -75 -16 -4 -51 1 -86 14 -127
43 -200 50 -556 50 -370 0 -436 -7 -580 -60 l-78 -28 -43 20 c-77 34 -205 67
-313 79 -119 13 -262 2 -381 -29 -68 -18 -72 -18 -140 0 -89 23 -254 42 -318
35 -36 -3 -70 3 -125 21 -65 22 -95 26 -197 26 -102 0 -132 -4 -196 -26 -79
-26 -699 -356 -781 -415 -169 -122 -268 -322 -268 -541 0 -113 19 -200 66
-298 l33 -71 3 -769 3 -769 27 -70 c15 -38 26 -70 25 -70 -1 -1 -34 -23 -74
-49 -136 -89 -233 -225 -273 -382 -25 -96 -27 -272 -5 -359 22 -85 86 -211
139 -272 l46 -51 0 -1484 c0 -1654 -4 -1555 71 -1708 56 -114 178 -238 289
-292 149 -73 -24 -69 2297 -66 l2088 3 73 28 73 28 82 -20 c162 -40 203 -42
853 -38 598 3 633 5 714 24 283 70 476 177 669 369 63 63 115 114 116 114 2 0
6 -16 9 -35 4 -19 25 -71 48 -117 56 -113 179 -237 288 -290 142 -69 135 -68
831 -68 692 0 692 0 825 66 154 76 282 225 334 389 l13 40 18 -52 c55 -161
174 -300 319 -371 153 -75 122 -73 921 -70 l714 3 69 27 69 26 72 -18 c152
-39 209 -41 855 -37 600 3 629 4 722 25 514 116 873 449 1012 939 57 198 61
243 61 703 l0 425 -29 89 c-31 94 -98 205 -159 264 l-34 33 47 80 c90 149 149
325 170 508 8 64 10 247 7 537 -4 404 -6 447 -26 536 -122 551 -507 935 -1048
1045 -80 16 -153 18 -766 18 -372 0 -677 0 -677 0 0 0 7 36 15 80 30 169 13
406 -42 574 -59 183 -141 318 -278 460 -351 364 -911 469 -1387 261 -51 -23
-99 -44 -105 -47 -10 -4 -13 18 -13 93 0 323 -89 568 -272 754 -169 170 -395
260 -673 265 -100 2 -146 7 -200 24 -38 12 -110 24 -160 27 -137 9 -211 -10
-388 -100 l-147 -75 -33 19 c-53 30 -204 79 -295 95 -46 8 -128 15 -181 15
-71 0 -113 6 -161 22 -52 17 -89 21 -185 22 -151 0 -222 -22 -414 -128 l-133
-74 -92 43 c-170 81 -211 88 -542 93 l-291 4 -6 226 c-6 256 -13 298 -78 430
-71 145 -220 272 -379 324 -47 15 -98 22 -185 24 -104 4 -130 1 -195 -19z
m152 -3569 c10 -14 31 -29 48 -33 21 -5 30 -12 30 -26 0 -20 -6 -20 -242 -17
-277 3 -291 7 -329 85 l-20 42 -35 -39 c-69 -77 -214 -119 -358 -106 -91 9
-158 39 -207 94 -72 82 -70 50 -67 964 l3 814 30 59 c37 72 85 108 175 131
131 33 287 5 401 -72 28 -19 53 -34 55 -34 3 0 4 157 2 348 -3 315 -5 351 -21
375 -10 16 -31 30 -47 34 -17 3 -30 11 -30 17 0 7 132 85 293 173 l292 161 5
-1472 c5 -1369 6 -1474 22 -1498z m-4122 1911 l0 -111 52 46 c92 80 206 125
320 126 131 0 226 -44 280 -130 l31 -50 53 49 c101 93 226 137 359 129 124 -8
204 -57 247 -152 l23 -51 5 -870 c4 -670 8 -875 18 -892 6 -12 28 -27 47 -34
22 -8 35 -20 35 -31 0 -17 -18 -18 -295 -18 l-295 0 0 788 c0 729 -1 790 -18
822 -30 61 -110 63 -149 3 -17 -25 -18 -73 -21 -755 -3 -811 -5 -785 62 -809
23 -8 36 -19 36 -31 0 -17 -18 -18 -295 -18 l-295 0 -2 798 c-3 870 0 828 -61
853 -38 16 -84 1 -111 -34 -21 -28 -21 -32 -21 -774 l0 -745 33 -29 c18 -16
39 -29 47 -29 8 0 15 -9 15 -20 0 -20 -7 -20 -295 -20 l-295 0 0 838 c0 777
-1 839 -18 872 -12 24 -27 37 -49 44 -18 5 -33 14 -33 20 0 10 560 322 583
325 4 1 7 -49 7 -110z m6262 -54 c45 38 139 83 211 102 138 35 296 -4 358 -90
49 -68 59 -121 58 -316 l0 -176 -217 -203 -217 -203 -5 258 c-6 274 -12 307
-59 333 -58 30 -133 -3 -151 -68 -6 -24 -10 -289 -10 -740 0 -782 -2 -759 64
-783 23 -8 36 -19 36 -31 0 -17 -18 -18 -295 -18 l-295 0 0 833 c0 772 -1 835
-18 867 -10 21 -30 41 -50 49 -18 8 -31 19 -29 25 2 5 133 80 293 166 l289
157 3 -94 3 -94 31 26z m1318 55 l0 -110 55 45 c113 92 228 131 360 122 102
-6 155 -28 203 -82 69 -79 66 -29 72 -990 4 -670 8 -875 18 -892 6 -12 28 -27
47 -34 22 -8 35 -20 35 -31 0 -17 -18 -18 -295 -18 l-295 0 -2 798 c-3 870 0
828 -61 853 -38 16 -84 1 -111 -34 -21 -28 -21 -32 -21 -774 l0 -745 33 -29
c18 -16 39 -29 47 -29 8 0 15 -9 15 -20 0 -20 -7 -20 -295 -20 l-295 0 -2 848
c-3 933 1 880 -65 904 -18 7 -33 17 -33 23 0 9 560 321 583 324 4 1 7 -49 7
-109z m-5028 23 c71 -32 141 -103 174 -176 l29 -62 0 -750 0 -750 -23 -57
c-30 -75 -96 -147 -169 -183 l-58 -30 -325 0 -325 0 -58 30 c-73 36 -139 108
-169 183 l-23 57 0 750 0 750 31 65 c35 72 65 107 125 147 73 48 109 52 439
50 290 -2 307 -3 352 -24z m2774 -13 c83 -42 135 -106 164 -199 17 -55 20 -92
20 -290 0 -128 -5 -243 -11 -266 -22 -85 -60 -122 -365 -358 l-294 -228 0 -76
c0 -88 19 -137 62 -159 25 -13 63 -15 212 -12 164 3 185 5 223 25 71 39 113
103 143 221 21 84 30 43 30 -140 0 -264 -24 -347 -126 -436 -82 -73 -106 -77
-464 -77 l-315 0 -56 28 c-69 33 -132 99 -167 175 l-27 57 -3 715 c-3 746 -1
794 39 873 25 49 81 111 126 138 73 45 100 48 429 46 l311 -2 69 -35z m4393
-937 c183 -50 328 -197 376 -378 19 -76 19 -214 0 -289 -49 -188 -193 -331
-382 -380 -77 -20 -238 -20 -322 -1 -194 46 -346 200 -387 394 -62 294 87 564
359 651 95 30 253 32 356 3z m-9261 -1702 c89 83 229 172 327 210 127 49 204
62 360 62 160 -1 255 -21 358 -75 78 -41 186 -146 221 -216 l27 -53 67 61
c135 122 302 215 461 257 130 35 353 37 474 4 200 -53 320 -173 374 -373 16
-58 18 -194 23 -1693 l5 -1630 23 -37 c26 -42 68 -70 130 -89 39 -11 42 -15
42 -46 l0 -33 -595 0 -595 0 0 1472 c0 1028 -3 1490 -11 1535 -20 113 -75 163
-179 163 -81 0 -127 -30 -165 -105 l-30 -60 0 -1395 0 -1395 22 -42 c25 -45
86 -88 141 -99 28 -6 32 -10 32 -40 l0 -34 -595 0 -595 0 -2 1513 -3 1512 -25
49 c-33 65 -66 88 -133 94 -100 8 -168 -35 -204 -127 -17 -43 -18 -126 -21
-1405 -3 -1489 -5 -1425 55 -1497 29 -34 94 -68 131 -69 19 0 22 -5 22 -35 l0
-35 -600 0 -600 0 -2 1613 -3 1612 -23 47 c-27 54 -73 87 -133 95 -35 5 -40 9
-37 30 3 21 79 63 593 326 l590 302 3 -218 2 -218 68 62z m9614 -3478 c24 -43
74 -79 131 -94 44 -12 47 -15 47 -46 l0 -33 -595 0 -595 0 -2 1603 -3 1602
-26 56 c-31 66 -74 100 -135 107 -37 4 -44 8 -44 26 0 18 92 68 598 328 l597
306 5 -1911 c5 -1796 6 -1914 22 -1944z m-4857 3698 c122 -40 204 -89 285
-171 86 -86 136 -172 172 -295 l23 -80 0 -1370 c0 -1537 6 -1417 -75 -1580
-85 -174 -230 -293 -425 -351 -54 -16 -120 -18 -635 -21 -658 -4 -670 -3 -829
73 -79 37 -107 58 -176 127 -92 93 -140 176 -177 302 l-23 80 0 1365 c0 1537
-6 1421 77 1590 70 141 205 260 360 316 113 41 151 43 763 41 588 -2 590 -3
660 -26z m1865 -4 c0 -30 -3 -34 -44 -45 -91 -24 -132 -87 -124 -191 6 -79
470 -2124 479 -2109 19 35 531 2099 532 2145 1 39 -4 60 -19 80 -27 37 -89 71
-141 79 -41 6 -43 8 -43 40 l0 34 670 0 670 0 0 -33 c0 -30 -3 -34 -44 -45
-91 -24 -176 -119 -212 -237 -8 -27 -241 -844 -517 -1815 l-502 -1765 -537 -3
-537 -2 -15 52 c-8 29 -236 836 -506 1793 -270 957 -498 1760 -508 1784 -26
72 -83 135 -153 170 -34 17 -70 31 -81 31 -14 0 -18 8 -18 35 l0 35 825 0 825
0 0 -33z m5055 1 c169 -58 303 -171 382 -323 75 -146 76 -149 80 -613 3 -265
1 -439 -6 -485 -14 -90 -74 -216 -135 -283 -26 -28 -291 -228 -630 -474 l-585
-425 -1 -141 c0 -165 13 -217 70 -274 66 -66 94 -70 439 -70 338 0 396 7 509
60 81 38 166 123 209 210 32 65 83 226 83 261 0 14 7 19 26 19 l26 0 -5 -362
c-4 -332 -6 -370 -26 -448 -74 -287 -266 -461 -562 -509 -39 -7 -277 -11 -607
-11 -612 0 -624 1 -770 72 -156 76 -287 227 -349 403 l-28 80 -3 1335 c-2 955
0 1358 8 1415 24 164 106 325 218 425 70 63 213 135 307 154 58 12 176 14 670
13 l600 -2 80 -27z"/>
<path d="M5418 7614 c-17 -9 -31 -28 -38 -52 -8 -25 -10 -215 -8 -600 l3 -564
28 -24 c16 -13 41 -24 57 -24 16 0 41 11 57 24 l28 24 3 564 c2 386 0 575 -8
600 -7 25 -20 43 -40 53 -36 18 -47 18 -82 -1z"/>
<path d="M4065 7606 c-13 -13 -26 -39 -30 -57 -3 -19 -5 -285 -3 -592 l3 -559
28 -24 c16 -13 41 -24 57 -24 16 0 41 11 57 24 l28 24 3 559 c2 307 0 573 -3
592 -8 45 -46 81 -85 81 -19 0 -40 -9 -55 -24z"/>
<path d="M6832 7620 c-43 -18 -52 -63 -52 -275 0 -107 3 -195 8 -195 4 0 36
24 72 53 92 74 110 114 110 239 0 114 -15 163 -55 178 -31 12 -52 12 -83 0z"/>
<path d="M6380 4833 c-40 -21 -76 -70 -90 -124 -7 -24 -9 -408 -8 -1106 3
-1045 3 -1069 23 -1108 36 -72 152 -107 238 -71 42 17 83 66 97 114 8 26 10
365 8 1107 l-3 1070 -22 42 c-33 61 -75 87 -148 91 -43 2 -70 -2 -95 -15z"/>
<path d="M13284 4831 c-49 -22 -79 -61 -94 -122 -7 -29 -10 -171 -8 -416 l3
-373 125 91 c144 104 193 152 229 229 25 53 26 61 26 250 0 211 -6 246 -53
302 -50 59 -147 76 -228 39z"/>
</g>
</svg>
